<?xml version="1.0" encoding="UTF-8" standalone="no"?>
<!DOCTYPE svg PUBLIC "-//W3C//DTD SVG 1.1//EN" "http://www.w3.org/Graphics/SVG/1.1/DTD/svg11.dtd">
<svg xmlns="http://www.w3.org/2000/svg" version="1.1" viewBox="0.00 0.00 472.00 451.00">
<g stroke-width="2.00" fill="none" stroke-linecap="butt">
<path stroke="#969ba6" vector-effect="non-scaling-stroke" d="
  M 89.11 63.11
  C 70.14 76.87 56.92 98.02 53.13 121.06
  Q 52.04 127.67 52.03 141.00
  Q 51.97 223.26 52.01 305.51
  Q 52.02 318.67 53.10 325.45
  C 58.51 359.49 83.57 387.53 117.18 396.25
  Q 121.48 397.36 126.94 397.36
  Q 227.23 397.35 327.52 397.35
  C 332.59 397.35 338.30 397.20 343.05 396.57
  C 381.25 391.52 411.72 362.58 418.09 324.67
  Q 419.24 317.77 419.24 304.75
  Q 419.25 222.87 419.25 141.00
  Q 419.25 127.72 418.21 121.06
  C 412.29 83.06 381.73 53.53 343.72 48.47
  Q 337.48 47.64 323.75 47.64
  Q 225.63 47.67 127.50 47.49
  C 125.29 47.49 123.44 47.15 121.27 47.92
  C 119.19 48.65 116.80 48.98 114.94 49.63
  Q 101.04 54.46 89.11 63.11"
/>
<path stroke="#969ba6" vector-effect="non-scaling-stroke" d="
  M 204.22 263.29
  Q 209.40 263.26 214.57 263.26
  C 218.10 263.26 222.33 264.00 226.32 263.86
  C 228.29 263.80 229.89 264.53 231.96 264.45
  C 234.30 264.35 236.98 264.96 238.67 265.12
  Q 263.81 267.57 287.84 275.37
  Q 327.92 288.38 358.07 317.70
  Q 368.43 327.77 371.82 331.92
  Q 377.74 339.17 383.04 346.26
  Q 384.08 347.65 383.88 345.92
  C 383.61 343.64 382.74 340.85 382.34 339.00
  C 372.73 295.00 353.22 253.82 321.48 221.57
  C 319.41 219.46 316.89 217.45 314.60 215.31
  C 284.78 187.52 244.79 171.93 204.83 166.06
  Q 203.73 165.89 203.73 164.77
  L 203.73 100.56
  A 0.59 0.59 0.0 0 0 202.73 100.14
  L 88.17 214.70
  A 0.62 0.62 0.0 0 0 88.17 215.57
  L 202.42 329.81
  Q 203.73 331.12 203.73 329.27
  L 203.72 263.79
  Q 203.72 263.29 204.22 263.29"
/>
</g>
<path fill="#2d364c" d="
  M 123.13 21.38
  C 129.89 19.98 136.96 20.94 143.82 20.38
  C 149.57 19.90 155.46 20.24 161.25 20.23
  Q 237.38 20.00 313.50 20.15
  C 325.08 20.18 337.21 19.41 348.71 22.46
  Q 352.82 23.55 357.23 24.11
  C 384.08 27.55 408.11 45.28 423.54 66.81
  C 424.78 68.53 426.88 70.58 428.09 72.89
  C 431.08 78.61 434.34 84.32 436.48 90.45
  C 440.09 100.78 442.41 111.39 444.95 122.02
  Q 445.93 126.10 445.96 135.25
  C 445.98 141.55 445.47 148.09 446.20 154.34
  Q 446.46 156.59 446.47 158.68
  C 446.55 172.30 447.05 186.61 447.04 199.50
  C 447.01 236.92 447.37 274.39 446.15 311.78
  C 445.96 317.58 445.02 323.65 444.48 329.63
  C 443.68 338.30 440.37 346.01 438.50 354.73
  C 438.25 355.90 437.49 356.10 437.04 357.12
  C 425.32 383.26 404.36 401.50 379.22 414.29
  C 373.77 417.07 367.72 417.78 363.25 419.05
  Q 352.95 422.00 348.97 422.60
  C 342.71 423.54 337.01 424.91 330.42 424.96
  C 326.96 424.98 323.52 425.55 320.19 425.47
  Q 311.64 425.28 303.15 426.16
  Q 295.27 426.97 290.33 426.98
  Q 230.66 427.03 171.00 426.98
  Q 168.42 426.98 164.15 426.42
  C 156.50 425.43 148.38 426.08 140.63 425.79
  C 139.57 425.75 138.80 425.03 137.82 425.03
  Q 132.55 425.03 127.29 424.67
  Q 124.40 424.46 120.37 423.20
  C 116.59 422.01 112.65 421.47 108.98 420.28
  C 104.22 418.73 99.19 417.93 94.83 416.04
  C 87.42 412.82 79.61 409.50 73.40 404.11
  C 65.61 397.35 56.65 391.50 50.28 382.97
  C 46.46 377.83 40.40 369.33 36.02 362.23
  Q 35.12 360.79 34.61 359.15
  C 33.11 354.41 30.86 349.59 29.62 345.20
  C 26.12 332.78 23.17 319.44 23.15 306.75
  Q 23.01 225.12 22.99 143.50
  Q 22.98 134.66 25.83 122.54
  C 27.45 115.64 30.41 107.94 32.99 100.64
  Q 34.69 95.80 36.48 92.10
  C 43.65 77.22 52.10 63.18 64.13 52.04
  Q 74.49 42.44 80.84 36.85
  Q 82.27 35.59 84.75 34.23
  Q 99.30 26.20 115.46 22.47
  C 117.58 21.98 120.40 21.94 123.13 21.38
  Z
  M 89.11 63.11
  C 70.14 76.87 56.92 98.02 53.13 121.06
  Q 52.04 127.67 52.03 141.00
  Q 51.97 223.26 52.01 305.51
  Q 52.02 318.67 53.10 325.45
  C 58.51 359.49 83.57 387.53 117.18 396.25
  Q 121.48 397.36 126.94 397.36
  Q 227.23 397.35 327.52 397.35
  C 332.59 397.35 338.30 397.20 343.05 396.57
  C 381.25 391.52 411.72 362.58 418.09 324.67
  Q 419.24 317.77 419.24 304.75
  Q 419.25 222.87 419.25 141.00
  Q 419.25 127.72 418.21 121.06
  C 412.29 83.06 381.73 53.53 343.72 48.47
  Q 337.48 47.64 323.75 47.64
  Q 225.63 47.67 127.50 47.49
  C 125.29 47.49 123.44 47.15 121.27 47.92
  C 119.19 48.65 116.80 48.98 114.94 49.63
  Q 101.04 54.46 89.11 63.11
  Z"
/>
<path fill="#ffffff" d="
  M 89.11 63.11
  Q 101.04 54.46 114.94 49.63
  C 116.80 48.98 119.19 48.65 121.27 47.92
  C 123.44 47.15 125.29 47.49 127.50 47.49
  Q 225.63 47.67 323.75 47.64
  Q 337.48 47.64 343.72 48.47
  C 381.73 53.53 412.29 83.06 418.21 121.06
  Q 419.25 127.72 419.25 141.00
  Q 419.25 222.87 419.24 304.75
  Q 419.24 317.77 418.09 324.67
  C 411.72 362.58 381.25 391.52 343.05 396.57
  C 338.30 397.20 332.59 397.35 327.52 397.35
  Q 227.23 397.35 126.94 397.36
  Q 121.48 397.36 117.18 396.25
  C 83.57 387.53 58.51 359.49 53.10 325.45
  Q 52.02 318.67 52.01 305.51
  Q 51.97 223.26 52.03 141.00
  Q 52.04 127.67 53.13 121.06
  C 56.92 98.02 70.14 76.87 89.11 63.11
  Z
  M 204.22 263.29
  Q 209.40 263.26 214.57 263.26
  C 218.10 263.26 222.33 264.00 226.32 263.86
  C 228.29 263.80 229.89 264.53 231.96 264.45
  C 234.30 264.35 236.98 264.96 238.67 265.12
  Q 263.81 267.57 287.84 275.37
  Q 327.92 288.38 358.07 317.70
  Q 368.43 327.77 371.82 331.92
  Q 377.74 339.17 383.04 346.26
  Q 384.08 347.65 383.88 345.92
  C 383.61 343.64 382.74 340.85 382.34 339.00
  C 372.73 295.00 353.22 253.82 321.48 221.57
  C 319.41 219.46 316.89 217.45 314.60 215.31
  C 284.78 187.52 244.79 171.93 204.83 166.06
  Q 203.73 165.89 203.73 164.77
  L 203.73 100.56
  A 0.59 0.59 0.0 0 0 202.73 100.14
  L 88.17 214.70
  A 0.62 0.62 0.0 0 0 88.17 215.57
  L 202.42 329.81
  Q 203.73 331.12 203.73 329.27
  L 203.72 263.79
  Q 203.72 263.29 204.22 263.29
  Z"
/>
<path fill="#2d364c" d="
  M 203.72 263.79
  L 203.73 329.27
  Q 203.73 331.12 202.42 329.81
  L 88.17 215.57
  A 0.62 0.62 0.0 0 1 88.17 214.70
  L 202.73 100.14
  A 0.59 0.59 0.0 0 1 203.73 100.56
  L 203.73 164.77
  Q 203.73 165.89 204.83 166.06
  C 244.79 171.93 284.78 187.52 314.60 215.31
  C 316.89 217.45 319.41 219.46 321.48 221.57
  C 353.22 253.82 372.73 295.00 382.34 339.00
  C 382.74 340.85 383.61 343.64 383.88 345.92
  Q 384.08 347.65 383.04 346.26
  Q 377.74 339.17 371.82 331.92
  Q 368.43 327.77 358.07 317.70
  Q 327.92 288.38 287.84 275.37
  Q 263.81 267.57 238.67 265.12
  C 236.98 264.96 234.30 264.35 231.96 264.45
  C 229.89 264.53 228.29 263.80 226.32 263.86
  C 222.33 264.00 218.10 263.26 214.57 263.26
  Q 209.40 263.26 204.22 263.29
  Q 203.72 263.29 203.72 263.79
  Z"
/>
</svg>
