<?xml version="1.0" encoding="UTF-8" standalone="no"?>
<!DOCTYPE svg PUBLIC "-//W3C//DTD SVG 1.1//EN" "http://www.w3.org/Graphics/SVG/1.1/DTD/svg11.dtd">
<svg xmlns="http://www.w3.org/2000/svg" version="1.1" viewBox="0.00 0.00 503.00 183.00">
<path stroke="#969ba6" stroke-width="2.00" fill="none" stroke-linecap="butt" vector-effect="non-scaling-stroke" d="
  M 408.97 65.19
  A 20.97 20.97 0.0 0 0 388.00 44.22
  L 115.16 44.22
  A 20.97 20.97 0.0 0 0 94.19 65.19
  L 94.19 107.59
  A 20.97 20.97 0.0 0 0 115.16 128.56
  L 388.00 128.56
  A 20.97 20.97 0.0 0 0 408.97 107.59
  L 408.97 65.19"
/>
<path fill="#2d364c" d="
  M 92.25 49.83
  A 0.23 0.23 0.0 0 0 92.60 49.76
  Q 94.62 45.65 98.67 43.44
  Q 98.76 43.39 98.74 43.29
  Q 98.72 43.16 98.69 43.04
  Q 98.67 42.94 98.75 42.89
  Q 106.87 37.62 114.00 37.62
  Q 251.00 37.59 388.00 37.54
  Q 390.04 37.54 392.08 37.76
  A 0.70 0.68 -17.7 0 1 392.50 37.97
  L 392.73 38.23
  Q 392.88 38.39 393.10 38.42
  Q 397.09 38.89 399.49 40.04
  Q 406.18 43.24 410.36 49.37
  Q 410.61 49.73 410.99 49.66
  A 0.33 0.32 86.5 0 1 411.37 50.00
  Q 411.33 50.89 412.10 51.34
  A 0.81 0.80 -70.1 0 1 412.49 52.18
  Q 412.33 53.05 413.04 53.48
  Q 413.57 53.79 413.35 54.37
  Q 413.05 55.21 413.90 55.50
  Q 414.35 55.64 414.33 56.11
  Q 414.28 57.46 414.64 58.42
  Q 415.47 60.64 415.47 62.50
  C 415.49 79.36 415.96 96.26 415.24 113.10
  Q 415.23 113.45 414.95 113.67
  Q 414.74 113.85 414.71 114.01
  C 413.07 122.73 406.73 129.12 398.85 132.89
  C 397.54 133.52 396.28 133.53 394.85 134.03
  C 393.35 134.56 389.41 135.31 387.90 135.33
  Q 370.82 135.54 353.75 135.50
  Q 237.54 135.25 121.34 135.28
  Q 120.86 135.28 120.45 135.04
  Q 119.84 134.68 119.00 134.73
  Q 113.63 135.02 108.32 134.30
  C 107.30 134.17 106.39 133.50 105.27 133.35
  Q 104.74 133.28 104.43 132.84
  Q 104.10 132.38 103.43 132.39
  A 1.23 1.23 0.0 0 1 102.88 132.26
  Q 95.51 128.41 91.03 121.36
  Q 90.76 120.93 90.68 120.43
  Q 90.58 119.84 90.07 119.55
  A 0.66 0.64 16.4 0 1 89.73 118.95
  Q 89.76 117.75 89.06 116.85
  Q 88.75 116.46 88.67 115.96
  C 88.17 112.64 87.23 109.57 87.23 106.23
  Q 87.22 86.12 87.21 66.02
  C 87.21 64.36 87.41 61.85 87.97 60.23
  Q 88.64 58.30 88.70 56.23
  Q 88.72 55.71 89.16 55.45
  Q 89.74 55.11 89.59 54.27
  A 0.77 0.76 -20.0 0 1 89.98 53.45
  Q 90.68 53.09 90.59 52.23
  Q 90.54 51.69 91.04 51.47
  Q 92.08 51.02 91.69 49.90
  Q 91.58 49.60 91.90 49.64
  Q 92.05 49.66 92.25 49.83
  Z
  M 408.97 65.19
  A 20.97 20.97 0.0 0 0 388.00 44.22
  L 115.16 44.22
  A 20.97 20.97 0.0 0 0 94.19 65.19
  L 94.19 107.59
  A 20.97 20.97 0.0 0 0 115.16 128.56
  L 388.00 128.56
  A 20.97 20.97 0.0 0 0 408.97 107.59
  L 408.97 65.19
  Z"
/>
<rect fill="#ffffff" x="94.19" y="44.22" width="314.78" height="84.34" rx="20.97"/>
</svg>
