<?xml version="1.0" encoding="UTF-8" standalone="no"?>
<!DOCTYPE svg PUBLIC "-//W3C//DTD SVG 1.1//EN" "http://www.w3.org/Graphics/SVG/1.1/DTD/svg11.dtd">
<svg xmlns="http://www.w3.org/2000/svg" version="1.1" viewBox="0.00 0.00 472.00 451.00">
<g stroke-width="2.00" fill="none" stroke-linecap="butt">
<path stroke="#969ba6" vector-effect="non-scaling-stroke" d="
  M 89.11 63.11
  C 70.14 76.87 56.93 98.02 53.13 121.06
  Q 52.04 127.67 52.03 141.00
  Q 51.97 223.26 52.01 305.51
  Q 52.02 318.66 53.10 325.43
  C 58.50 359.48 83.42 387.27 116.92 396.22
  Q 121.05 397.33 126.21 397.33
  Q 228.86 397.39 331.50 397.16
  C 374.87 397.06 411.18 366.76 418.13 324.19
  Q 419.27 317.24 419.26 304.25
  Q 419.25 222.00 419.24 139.74
  Q 419.24 126.84 418.03 119.84
  C 411.52 82.27 381.08 53.17 343.23 48.40
  Q 337.25 47.64 323.26 47.65
  Q 225.13 47.67 127.00 47.44
  C 125.05 47.44 123.32 47.19 121.41 47.87
  C 119.27 48.63 116.81 48.98 114.90 49.64
  Q 101.02 54.47 89.11 63.11"
/>
<path stroke="#969ba6" vector-effect="non-scaling-stroke" d="
  M 236.44 313.06
  C 240.72 312.65 245.48 313.50 248.98 313.50
  C 253.00 313.50 257.72 313.03 261.62 313.94
  C 263.58 314.40 265.79 313.67 267.66 313.51
  C 277.92 312.64 285.80 305.07 288.82 295.58
  C 291.41 287.41 289.35 277.61 290.33 269.03
  C 290.99 263.23 290.49 256.71 290.51 250.81
  Q 290.51 250.29 291.03 250.27
  Q 294.64 250.20 298.25 250.26
  Q 298.47 250.27 298.87 250.02
  Q 299.30 249.76 299.79 249.76
  Q 304.87 249.72 309.98 249.74
  C 313.25 249.76 315.92 249.20 316.69 245.82
  C 317.20 243.60 315.86 241.36 314.95 239.30
  Q 303.20 212.81 291.44 186.32
  Q 290.58 184.39 290.56 181.98
  C 290.49 174.42 288.64 166.33 286.24 159.48
  C 273.66 123.57 239.09 98.52 201.14 97.04
  Q 193.12 96.72 189.49 97.01
  C 152.42 99.92 118.34 123.68 106.41 159.74
  Q 103.63 168.14 103.28 177.01
  Q 102.48 197.36 104.97 217.55
  Q 107.73 240.04 110.63 262.51
  Q 110.87 264.37 110.88 266.25
  Q 110.89 294.50 110.89 322.75
  C 110.89 324.15 111.45 326.06 111.45 327.76
  Q 111.46 336.52 111.45 344.35
  A 4.30 4.29 0.4 0 0 115.70 348.65
  L 231.71 350.04
  A 4.25 4.25 0.0 0 0 236.01 345.79
  L 236.00 313.55
  Q 236.00 313.10 236.44 313.06"
/>
<path stroke="#969ba6" vector-effect="non-scaling-stroke" d="
  M 367.92 301.76
  Q 368.47 298.92 368.98 293.73
  Q 369.10 292.49 368.95 286.92
  C 368.52 271.46 363.18 257.81 353.01 245.98
  Q 351.69 244.43 350.18 243.49
  C 346.92 241.47 343.64 244.04 343.01 247.38
  C 342.75 248.76 343.85 250.76 344.77 251.77
  Q 359.80 268.42 359.45 291.20
  C 359.43 292.22 359.00 293.19 358.96 294.32
  C 358.62 303.38 355.02 312.64 350.06 320.09
  C 348.50 322.43 346.03 325.16 343.98 328.02
  Q 341.37 331.65 344.78 334.53
  L 345.60 335.21
  A 3.86 3.86 0.0 0 0 350.89 334.92
  Q 364.24 320.88 367.92 301.76"
/>
<path stroke="#969ba6" vector-effect="non-scaling-stroke" d="
  M 326.34 314.05
  C 336.65 299.68 337.78 279.78 327.01 265.02
  C 324.62 261.74 323.63 259.81 320.23 259.04
  Q 319.77 258.93 319.31 259.08
  C 317.91 259.54 316.79 259.66 315.95 260.98
  C 314.00 264.03 315.16 266.13 317.42 268.81
  C 327.17 280.38 327.27 297.16 317.66 308.75
  Q 315.39 311.48 315.07 312.39
  C 313.93 315.58 316.98 319.57 320.47 318.96
  C 322.86 318.54 324.93 316.02 326.34 314.05"
/>
<path stroke="#969ba6" vector-effect="non-scaling-stroke" d="
  M 194.08 308.93
  Q 192.54 305.43 194.92 303.21
  C 198.37 299.99 205.86 302.16 210.12 302.18
  C 219.67 302.22 229.17 302.68 238.72 302.75
  C 239.39 302.76 240.29 303.29 240.75 303.28
  Q 252.53 303.00 255.81 303.40
  C 266.53 304.74 276.14 303.24 279.63 292.05
  C 280.45 289.42 280.03 286.53 280.28 283.64
  Q 280.67 279.27 280.67 277.33
  Q 280.68 261.60 280.81 245.88
  Q 280.86 239.94 286.50 239.97
  Q 295.20 240.01 303.91 239.99
  Q 304.43 239.99 304.22 239.51
  Q 292.81 213.71 281.32 187.94
  C 280.94 187.09 281.26 184.82 280.92 183.38
  C 280.48 181.53 280.75 179.50 280.54 177.89
  Q 277.51 155.01 262.43 137.56
  C 228.52 98.30 170.51 96.92 134.16 133.18
  Q 124.89 142.43 119.41 154.31
  Q 117.25 159.00 115.36 163.80
  C 113.45 168.63 113.24 174.98 112.76 180.37
  C 112.08 188.02 112.93 192.11 112.97 198.50
  Q 113.03 206.36 115.89 227.27
  Q 117.87 241.70 119.75 256.16
  Q 120.76 263.94 120.76 271.91
  Q 120.76 297.74 120.76 323.58
  C 120.76 327.69 121.58 333.21 121.19 338.16
  A 0.49 0.48 2.8 0 0 121.67 338.68
  L 226.19 340.06
  Q 226.69 340.07 226.69 339.56
  L 226.70 312.99
  Q 226.70 312.47 226.18 312.46
  Q 221.67 312.41 217.17 312.42
  Q 213.94 312.43 208.35 311.92
  C 204.42 311.56 196.01 313.31 194.08 308.93"
/>
</g>
<path fill="#2d364c" d="
  M 123.13 21.38
  C 129.89 19.98 136.96 20.94 143.82 20.38
  C 149.57 19.90 155.46 20.24 161.25 20.23
  Q 237.38 20.00 313.50 20.15
  C 325.08 20.18 337.21 19.41 348.71 22.46
  Q 352.82 23.55 357.23 24.11
  C 384.08 27.55 408.11 45.28 423.54 66.81
  C 424.78 68.53 426.88 70.58 428.09 72.89
  C 431.08 78.61 434.34 84.32 436.48 90.45
  C 440.09 100.78 442.41 111.39 444.95 122.02
  Q 445.93 126.10 445.96 135.25
  C 445.98 141.55 445.47 148.09 446.20 154.34
  Q 446.46 156.59 446.47 158.68
  C 446.55 172.30 447.05 186.61 447.04 199.50
  C 447.01 236.90 447.37 274.36 446.15 311.74
  C 445.96 317.57 445.02 323.68 444.47 329.70
  C 443.66 338.53 440.22 346.37 438.37 355.32
  C 438.28 355.76 437.35 356.38 437.07 357.01
  C 425.67 382.78 405.83 399.78 381.62 413.08
  C 374.16 417.18 366.69 418.04 358.99 420.39
  C 351.66 422.62 345.07 423.19 338.04 424.39
  Q 334.92 424.92 330.42 424.96
  C 326.96 424.98 323.52 425.55 320.19 425.47
  Q 311.64 425.28 303.15 426.16
  Q 295.27 426.97 290.33 426.98
  Q 230.66 427.03 171.00 426.98
  Q 168.42 426.98 164.15 426.42
  C 156.50 425.43 148.38 426.08 140.63 425.79
  C 139.57 425.75 138.80 425.03 137.82 425.03
  Q 132.55 425.03 127.29 424.67
  Q 124.40 424.46 120.37 423.20
  C 116.58 422.01 112.65 421.47 108.97 420.28
  C 104.22 418.73 99.19 417.93 94.83 416.04
  C 87.42 412.82 79.61 409.50 73.40 404.11
  C 65.62 397.36 56.65 391.50 50.28 382.97
  C 46.46 377.83 40.40 369.33 36.02 362.23
  Q 35.12 360.79 34.61 359.15
  C 33.11 354.41 30.86 349.59 29.62 345.20
  C 26.12 332.78 23.17 319.44 23.15 306.75
  Q 23.01 225.12 22.99 143.50
  Q 22.98 134.66 25.83 122.54
  C 27.45 115.64 30.41 107.94 32.99 100.64
  Q 34.69 95.80 36.48 92.10
  C 43.65 77.22 52.10 63.18 64.13 52.04
  Q 74.49 42.44 80.84 36.85
  Q 82.27 35.59 84.75 34.23
  Q 99.30 26.20 115.46 22.47
  C 117.58 21.98 120.40 21.94 123.13 21.38
  Z
  M 89.11 63.11
  C 70.14 76.87 56.93 98.02 53.13 121.06
  Q 52.04 127.67 52.03 141.00
  Q 51.97 223.26 52.01 305.51
  Q 52.02 318.66 53.10 325.43
  C 58.50 359.48 83.42 387.27 116.92 396.22
  Q 121.05 397.33 126.21 397.33
  Q 228.86 397.39 331.50 397.16
  C 374.87 397.06 411.18 366.76 418.13 324.19
  Q 419.27 317.24 419.26 304.25
  Q 419.25 222.00 419.24 139.74
  Q 419.24 126.84 418.03 119.84
  C 411.52 82.27 381.08 53.17 343.23 48.40
  Q 337.25 47.64 323.26 47.65
  Q 225.13 47.67 127.00 47.44
  C 125.05 47.44 123.32 47.19 121.41 47.87
  C 119.27 48.63 116.81 48.98 114.90 49.64
  Q 101.02 54.47 89.11 63.11
  Z"
/>
<path fill="#ffffff" d="
  M 89.11 63.11
  Q 101.02 54.47 114.90 49.64
  C 116.81 48.98 119.27 48.63 121.41 47.87
  C 123.32 47.19 125.05 47.44 127.00 47.44
  Q 225.13 47.67 323.26 47.65
  Q 337.25 47.64 343.23 48.40
  C 381.08 53.17 411.52 82.27 418.03 119.84
  Q 419.24 126.84 419.24 139.74
  Q 419.25 222.00 419.26 304.25
  Q 419.27 317.24 418.13 324.19
  C 411.18 366.76 374.87 397.06 331.50 397.16
  Q 228.86 397.39 126.21 397.33
  Q 121.05 397.33 116.92 396.22
  C 83.42 387.27 58.50 359.48 53.10 325.43
  Q 52.02 318.66 52.01 305.51
  Q 51.97 223.26 52.03 141.00
  Q 52.04 127.67 53.13 121.06
  C 56.93 98.02 70.14 76.87 89.11 63.11
  Z
  M 236.44 313.06
  C 240.72 312.65 245.48 313.50 248.98 313.50
  C 253.00 313.50 257.72 313.03 261.62 313.94
  C 263.58 314.40 265.79 313.67 267.66 313.51
  C 277.92 312.64 285.80 305.07 288.82 295.58
  C 291.41 287.41 289.35 277.61 290.33 269.03
  C 290.99 263.23 290.49 256.71 290.51 250.81
  Q 290.51 250.29 291.03 250.27
  Q 294.64 250.20 298.25 250.26
  Q 298.47 250.27 298.87 250.02
  Q 299.30 249.76 299.79 249.76
  Q 304.87 249.72 309.98 249.74
  C 313.25 249.76 315.92 249.20 316.69 245.82
  C 317.20 243.60 315.86 241.36 314.95 239.30
  Q 303.20 212.81 291.44 186.32
  Q 290.58 184.39 290.56 181.98
  C 290.49 174.42 288.64 166.33 286.24 159.48
  C 273.66 123.57 239.09 98.52 201.14 97.04
  Q 193.12 96.72 189.49 97.01
  C 152.42 99.92 118.34 123.68 106.41 159.74
  Q 103.63 168.14 103.28 177.01
  Q 102.48 197.36 104.97 217.55
  Q 107.73 240.04 110.63 262.51
  Q 110.87 264.37 110.88 266.25
  Q 110.89 294.50 110.89 322.75
  C 110.89 324.15 111.45 326.06 111.45 327.76
  Q 111.46 336.52 111.45 344.35
  A 4.30 4.29 0.4 0 0 115.70 348.65
  L 231.71 350.04
  A 4.25 4.25 0.0 0 0 236.01 345.79
  L 236.00 313.55
  Q 236.00 313.10 236.44 313.06
  Z
  M 367.92 301.76
  Q 368.47 298.92 368.98 293.73
  Q 369.10 292.49 368.95 286.92
  C 368.52 271.46 363.18 257.81 353.01 245.98
  Q 351.69 244.43 350.18 243.49
  C 346.92 241.47 343.64 244.04 343.01 247.38
  C 342.75 248.76 343.85 250.76 344.77 251.77
  Q 359.80 268.42 359.45 291.20
  C 359.43 292.22 359.00 293.19 358.96 294.32
  C 358.62 303.38 355.02 312.64 350.06 320.09
  C 348.50 322.43 346.03 325.16 343.98 328.02
  Q 341.37 331.65 344.78 334.53
  L 345.60 335.21
  A 3.86 3.86 0.0 0 0 350.89 334.92
  Q 364.24 320.88 367.92 301.76
  Z
  M 326.34 314.05
  C 336.65 299.68 337.78 279.78 327.01 265.02
  C 324.62 261.74 323.63 259.81 320.23 259.04
  Q 319.77 258.93 319.31 259.08
  C 317.91 259.54 316.79 259.66 315.95 260.98
  C 314.00 264.03 315.16 266.13 317.42 268.81
  C 327.17 280.38 327.27 297.16 317.66 308.75
  Q 315.39 311.48 315.07 312.39
  C 313.93 315.58 316.98 319.57 320.47 318.96
  C 322.86 318.54 324.93 316.02 326.34 314.05
  Z"
/>
<path fill="#2d364c" d="
  M 236.00 313.55
  L 236.01 345.79
  A 4.25 4.25 0.0 0 1 231.71 350.04
  L 115.70 348.65
  A 4.30 4.29 0.4 0 1 111.45 344.35
  Q 111.46 336.52 111.45 327.76
  C 111.45 326.06 110.89 324.15 110.89 322.75
  Q 110.89 294.50 110.88 266.25
  Q 110.87 264.37 110.63 262.51
  Q 107.73 240.04 104.97 217.55
  Q 102.48 197.36 103.28 177.01
  Q 103.63 168.14 106.41 159.74
  C 118.34 123.68 152.42 99.92 189.49 97.01
  Q 193.12 96.72 201.14 97.04
  C 239.09 98.52 273.66 123.57 286.24 159.48
  C 288.64 166.33 290.49 174.42 290.56 181.98
  Q 290.58 184.39 291.44 186.32
  Q 303.20 212.81 314.95 239.30
  C 315.86 241.36 317.20 243.60 316.69 245.82
  C 315.92 249.20 313.25 249.76 309.98 249.74
  Q 304.87 249.72 299.79 249.76
  Q 299.30 249.76 298.87 250.02
  Q 298.47 250.27 298.25 250.26
  Q 294.64 250.20 291.03 250.27
  Q 290.51 250.29 290.51 250.81
  C 290.49 256.71 290.99 263.23 290.33 269.03
  C 289.35 277.61 291.41 287.41 288.82 295.58
  C 285.80 305.07 277.92 312.64 267.66 313.51
  C 265.79 313.67 263.58 314.40 261.62 313.94
  C 257.72 313.03 253.00 313.50 248.98 313.50
  C 245.48 313.50 240.72 312.65 236.44 313.06
  Q 236.00 313.10 236.00 313.55
  Z
  M 194.08 308.93
  Q 192.54 305.43 194.92 303.21
  C 198.37 299.99 205.86 302.16 210.12 302.18
  C 219.67 302.22 229.17 302.68 238.72 302.75
  C 239.39 302.76 240.29 303.29 240.75 303.28
  Q 252.53 303.00 255.81 303.40
  C 266.53 304.74 276.14 303.24 279.63 292.05
  C 280.45 289.42 280.03 286.53 280.28 283.64
  Q 280.67 279.27 280.67 277.33
  Q 280.68 261.60 280.81 245.88
  Q 280.86 239.94 286.50 239.97
  Q 295.20 240.01 303.91 239.99
  Q 304.43 239.99 304.22 239.51
  Q 292.81 213.71 281.32 187.94
  C 280.94 187.09 281.26 184.82 280.92 183.38
  C 280.48 181.53 280.75 179.50 280.54 177.89
  Q 277.51 155.01 262.43 137.56
  C 228.52 98.30 170.51 96.92 134.16 133.18
  Q 124.89 142.43 119.41 154.31
  Q 117.25 159.00 115.36 163.80
  C 113.45 168.63 113.24 174.98 112.76 180.37
  C 112.08 188.02 112.93 192.11 112.97 198.50
  Q 113.03 206.36 115.89 227.27
  Q 117.87 241.70 119.75 256.16
  Q 120.76 263.94 120.76 271.91
  Q 120.76 297.74 120.76 323.58
  C 120.76 327.69 121.58 333.21 121.19 338.16
  A 0.49 0.48 2.8 0 0 121.67 338.68
  L 226.19 340.06
  Q 226.69 340.07 226.69 339.56
  L 226.70 312.99
  Q 226.70 312.47 226.18 312.46
  Q 221.67 312.41 217.17 312.42
  Q 213.94 312.43 208.35 311.92
  C 204.42 311.56 196.01 313.31 194.08 308.93
  Z"
/>
<path fill="#ffffff" d="
  M 194.08 308.93
  C 196.01 313.31 204.42 311.56 208.35 311.92
  Q 213.94 312.43 217.17 312.42
  Q 221.67 312.41 226.18 312.46
  Q 226.70 312.47 226.70 312.99
  L 226.69 339.56
  Q 226.69 340.07 226.19 340.06
  L 121.67 338.68
  A 0.49 0.48 2.8 0 1 121.19 338.16
  C 121.58 333.21 120.76 327.69 120.76 323.58
  Q 120.76 297.74 120.76 271.91
  Q 120.76 263.94 119.75 256.16
  Q 117.87 241.70 115.89 227.27
  Q 113.03 206.36 112.97 198.50
  C 112.93 192.11 112.08 188.02 112.76 180.37
  C 113.24 174.98 113.45 168.63 115.36 163.80
  Q 117.25 159.00 119.41 154.31
  Q 124.89 142.43 134.16 133.18
  C 170.51 96.92 228.52 98.30 262.43 137.56
  Q 277.51 155.01 280.54 177.89
  C 280.75 179.50 280.48 181.53 280.92 183.38
  C 281.26 184.82 280.94 187.09 281.32 187.94
  Q 292.81 213.71 304.22 239.51
  Q 304.43 239.99 303.91 239.99
  Q 295.20 240.01 286.50 239.97
  Q 280.86 239.94 280.81 245.88
  Q 280.68 261.60 280.67 277.33
  Q 280.67 279.27 280.28 283.64
  C 280.03 286.53 280.45 289.42 279.63 292.05
  C 276.14 303.24 266.53 304.74 255.81 303.40
  Q 252.53 303.00 240.75 303.28
  C 240.29 303.29 239.39 302.76 238.72 302.75
  C 229.17 302.68 219.67 302.22 210.12 302.18
  C 205.86 302.16 198.37 299.99 194.92 303.21
  Q 192.54 305.43 194.08 308.93
  Z"
/>
<path fill="#2d364c" d="
  M 367.92 301.76
  Q 364.24 320.88 350.89 334.92
  A 3.86 3.86 0.0 0 1 345.60 335.21
  L 344.78 334.53
  Q 341.37 331.65 343.98 328.02
  C 346.03 325.16 348.50 322.43 350.06 320.09
  C 355.02 312.64 358.62 303.38 358.96 294.32
  C 359.00 293.19 359.43 292.22 359.45 291.20
  Q 359.80 268.42 344.77 251.77
  C 343.85 250.76 342.75 248.76 343.01 247.38
  C 343.64 244.04 346.92 241.47 350.18 243.49
  Q 351.69 244.43 353.01 245.98
  C 363.18 257.81 368.52 271.46 368.95 286.92
  Q 369.10 292.49 368.98 293.73
  Q 368.47 298.92 367.92 301.76
  Z"
/>
<path fill="#2d364c" d="
  M 327.01 265.02
  C 337.78 279.78 336.65 299.68 326.34 314.05
  C 324.93 316.02 322.86 318.54 320.47 318.96
  C 316.98 319.57 313.93 315.58 315.07 312.39
  Q 315.39 311.48 317.66 308.75
  C 327.27 297.16 327.17 280.38 317.42 268.81
  C 315.16 266.13 314.00 264.03 315.95 260.98
  C 316.79 259.66 317.91 259.54 319.31 259.08
  Q 319.77 258.93 320.23 259.04
  C 323.63 259.81 324.62 261.74 327.01 265.02
  Z"
/>
</svg>
