<?xml version="1.0" encoding="UTF-8" standalone="no"?>
<!DOCTYPE svg PUBLIC "-//W3C//DTD SVG 1.1//EN" "http://www.w3.org/Graphics/SVG/1.1/DTD/svg11.dtd">
<svg xmlns="http://www.w3.org/2000/svg" version="1.1" viewBox="0.00 0.00 503.00 183.00">
<path stroke="#8e6b57" stroke-width="2.00" fill="none" stroke-linecap="butt" vector-effect="non-scaling-stroke" d="
  M 408.79 65.17
  A 20.87 20.87 0.0 0 0 387.92 44.30
  L 115.16 44.30
  A 20.87 20.87 0.0 0 0 94.29 65.17
  L 94.29 107.47
  A 20.87 20.87 0.0 0 0 115.16 128.34
  L 387.92 128.34
  A 20.87 20.87 0.0 0 0 408.79 107.47
  L 408.79 65.17"
/>
<path fill="#2d354c" d="
  M 92.32 49.75
  Q 92.98 49.16 93.84 47.60
  Q 95.07 45.39 98.64 43.52
  A 0.18 0.18 0.0 0 0 98.74 43.33
  Q 98.71 43.19 98.68 43.05
  Q 98.67 43.00 98.72 42.97
  Q 106.85 37.61 115.00 37.61
  Q 252.87 37.60 390.75 37.61
  Q 391.70 37.61 392.36 37.94
  Q 392.66 38.10 392.99 38.19
  L 398.67 39.67
  Q 399.22 39.81 399.66 40.17
  Q 400.36 40.75 401.24 40.61
  A 0.13 0.12 83.7 0 1 401.38 40.73
  Q 401.38 40.90 401.38 41.07
  Q 401.38 41.18 401.48 41.24
  Q 406.86 44.06 410.16 49.11
  Q 410.38 49.45 410.62 49.56
  Q 410.81 49.65 411.03 49.69
  Q 411.37 49.75 411.37 50.09
  Q 411.38 50.85 412.01 51.28
  Q 412.53 51.64 412.47 52.26
  Q 412.39 53.07 413.07 53.51
  Q 413.53 53.80 413.38 54.32
  Q 413.12 55.19 413.89 55.49
  Q 414.33 55.66 414.32 56.13
  C 414.27 57.98 415.25 59.42 415.35 60.99
  Q 415.44 62.24 415.44 63.49
  Q 415.48 86.32 415.65 109.15
  Q 415.68 113.66 413.34 118.79
  C 410.79 124.39 406.42 128.58 401.18 131.66
  C 397.31 133.93 390.88 135.28 386.29 135.32
  Q 376.52 135.42 366.75 135.41
  Q 244.11 135.30 121.48 135.35
  Q 121.01 135.35 120.59 135.14
  C 118.64 134.18 114.04 134.88 111.49 134.67
  Q 108.04 134.37 105.20 133.23
  C 96.93 129.92 89.92 122.81 88.32 113.74
  C 87.91 111.45 87.23 109.37 87.23 107.04
  Q 87.23 86.02 87.20 65.00
  Q 87.20 62.60 88.82 56.99
  A 0.98 0.97 38.7 0 0 88.74 56.28
  Q 88.43 55.68 88.99 55.52
  Q 89.58 55.35 89.59 54.73
  L 89.60 54.21
  A 0.92 0.90 74.2 0 1 90.00 53.47
  Q 90.70 53.01 90.62 52.11
  Q 90.58 51.63 91.04 51.45
  Q 92.11 51.04 91.64 49.68
  A 0.08 0.07 6.2 0 1 91.75 49.60
  L 92.09 49.78
  Q 92.21 49.85 92.32 49.75
  Z
  M 408.79 65.17
  A 20.87 20.87 0.0 0 0 387.92 44.30
  L 115.16 44.30
  A 20.87 20.87 0.0 0 0 94.29 65.17
  L 94.29 107.47
  A 20.87 20.87 0.0 0 0 115.16 128.34
  L 387.92 128.34
  A 20.87 20.87 0.0 0 0 408.79 107.47
  L 408.79 65.17
  Z"
/>
<rect fill="#eea062" x="94.29" y="44.30" width="314.50" height="84.04" rx="20.87"/>
</svg>
